G04 MADE WITH FRITZING*
G04 WWW.FRITZING.ORG*
G04 DOUBLE SIDED*
G04 HOLES PLATED*
G04 CONTOUR ON CENTER OF CONTOUR VECTOR*
%ASAXBY*%
%FSLAX23Y23*%
%MOIN*%
%OFA0B0*%
%SFA1.0B1.0*%
%ADD10C,0.085000*%
%ADD11C,0.089370*%
%ADD12C,0.076000*%
%ADD13C,0.088000*%
%ADD14C,0.049370*%
%LNMASK0*%
G90*
G70*
G54D10*
X436Y327D03*
X436Y427D03*
X436Y527D03*
G54D11*
X967Y127D03*
X1067Y127D03*
X1167Y127D03*
X1267Y127D03*
X1367Y127D03*
X1467Y127D03*
X1567Y127D03*
X1667Y127D03*
X67Y127D03*
X167Y127D03*
X267Y127D03*
X367Y127D03*
X467Y127D03*
X567Y127D03*
X667Y127D03*
X767Y127D03*
X867Y127D03*
X67Y727D03*
X167Y727D03*
X267Y727D03*
X367Y727D03*
X467Y727D03*
X567Y727D03*
X667Y727D03*
X767Y727D03*
X867Y727D03*
G54D12*
X114Y474D03*
X167Y527D03*
G54D13*
X1017Y427D03*
X1217Y427D03*
X1567Y727D03*
X1467Y727D03*
X1367Y727D03*
X1267Y727D03*
X1167Y727D03*
X1067Y727D03*
X967Y727D03*
G54D10*
X1367Y298D03*
X1367Y554D03*
X1545Y298D03*
X1545Y554D03*
G54D11*
X667Y527D03*
X667Y427D03*
X667Y327D03*
G54D14*
X726Y596D03*
X570Y620D03*
X1173Y284D03*
X1674Y716D03*
X755Y356D03*
G04 End of Mask0*
M02*