; NON-PLATED HOLES START AT T1
; THROUGH (PLATED) HOLES START AT T100
M48
INCH
T100C0.035000
T101C0.031496
T102C0.039370
T103C0.038000
T104C0.015748
%
T100
X004355Y004270
X013673Y002978
X004355Y005270
X015445Y005537
X004355Y003270
X013673Y005537
X015445Y002978
T101
X001138Y004738
X001673Y005270
T102
X011673Y001270
X006673Y007270
X013673Y001270
X008673Y007270
X004673Y007270
X015673Y001270
X003673Y001270
X001673Y007270
X005673Y001270
X004673Y001270
X009673Y001270
X008673Y001270
X001673Y001270
X016673Y001270
X007673Y001270
X006673Y005270
X005673Y007270
X006673Y004270
X007673Y007270
X002673Y001270
X006673Y001270
X010673Y001270
X000673Y001270
X003673Y007270
X000673Y007270
X014673Y001270
X012673Y001270
X002673Y007270
X006673Y003270
T103
X011673Y007270
X012673Y007270
X010673Y007270
X013673Y007270
X012169Y004270
X015673Y007270
X010169Y004270
X014673Y007270
X009673Y007270
T104
X007259Y005961
X005699Y006201
X016740Y007161
X007554Y003561
X011726Y002839
T00
M30
