G04 MADE WITH FRITZING*
G04 WWW.FRITZING.ORG*
G04 DOUBLE SIDED*
G04 HOLES PLATED*
G04 CONTOUR ON CENTER OF CONTOUR VECTOR*
%ASAXBY*%
%FSLAX23Y23*%
%MOIN*%
%OFA0B0*%
%SFA1.0B1.0*%
%ADD10C,0.075000*%
%ADD11C,0.079370*%
%ADD12C,0.066000*%
%ADD13C,0.078000*%
%ADD14C,0.039370*%
%ADD15C,0.012000*%
%LNCOPPER1*%
G90*
G70*
G54D10*
X436Y327D03*
X436Y427D03*
X436Y527D03*
G54D11*
X967Y127D03*
X1067Y127D03*
X1167Y127D03*
X1267Y127D03*
X1367Y127D03*
X1467Y127D03*
X1567Y127D03*
X1667Y127D03*
X67Y127D03*
X167Y127D03*
X267Y127D03*
X367Y127D03*
X467Y127D03*
X567Y127D03*
X667Y127D03*
X767Y127D03*
X867Y127D03*
X67Y727D03*
X167Y727D03*
X267Y727D03*
X367Y727D03*
X467Y727D03*
X567Y727D03*
X667Y727D03*
X767Y727D03*
X867Y727D03*
G54D12*
X114Y474D03*
X167Y527D03*
X114Y474D03*
X167Y527D03*
G54D13*
X1017Y427D03*
X1217Y427D03*
X1567Y727D03*
X1467Y727D03*
X1367Y727D03*
X1267Y727D03*
X1167Y727D03*
X1067Y727D03*
X967Y727D03*
G54D10*
X1367Y298D03*
X1367Y554D03*
X1545Y298D03*
X1545Y554D03*
G54D11*
X667Y527D03*
X667Y427D03*
X667Y327D03*
G54D14*
X726Y596D03*
X570Y620D03*
X1173Y284D03*
X1674Y716D03*
X755Y356D03*
G54D15*
X277Y710D02*
X427Y442D01*
D02*
X1252Y140D02*
X1194Y188D01*
D02*
X1353Y114D02*
X1302Y68D01*
D02*
X822Y188D02*
X781Y142D01*
D02*
X1194Y188D02*
X822Y188D01*
D02*
X714Y68D02*
X680Y112D01*
D02*
X1302Y68D02*
X714Y68D01*
D02*
X1454Y713D02*
X1410Y668D01*
D02*
X718Y596D02*
X630Y596D01*
D02*
X426Y668D02*
X381Y713D01*
D02*
X1410Y668D02*
X426Y668D01*
D02*
X630Y596D02*
X446Y341D01*
D02*
X682Y514D02*
X726Y476D01*
D02*
X726Y392D02*
X681Y342D01*
D02*
X726Y476D02*
X726Y392D01*
D02*
X81Y141D02*
X198Y260D01*
D02*
X510Y260D02*
X649Y319D01*
D02*
X198Y260D02*
X510Y260D01*
D02*
X1290Y200D02*
X1050Y500D01*
D02*
X1602Y200D02*
X1290Y200D01*
D02*
X1654Y142D02*
X1602Y200D01*
D02*
X690Y632D02*
X578Y621D01*
D02*
X870Y632D02*
X690Y632D01*
D02*
X1050Y500D02*
X870Y632D01*
D02*
X438Y200D02*
X381Y141D01*
D02*
X786Y200D02*
X438Y200D01*
D02*
X798Y218D02*
X786Y200D01*
D02*
X1165Y283D02*
X798Y218D01*
D02*
X1722Y80D02*
X1326Y50D01*
D02*
X1722Y584D02*
X1722Y80D01*
D02*
X1581Y714D02*
X1722Y584D01*
D02*
X534Y56D02*
X481Y113D01*
D02*
X690Y56D02*
X534Y56D01*
D02*
X690Y44D02*
X690Y56D01*
D02*
X1326Y44D02*
X690Y44D01*
D02*
X1326Y50D02*
X1326Y44D01*
D02*
X1087Y127D02*
X1148Y127D01*
D02*
X987Y127D02*
X1048Y127D01*
D02*
X1373Y745D02*
X1386Y788D01*
D02*
X1148Y727D02*
X1086Y727D01*
D02*
X1002Y415D02*
X762Y224D01*
D02*
X1626Y716D02*
X1666Y716D01*
D02*
X1602Y788D02*
X1626Y716D01*
D02*
X1386Y788D02*
X1602Y788D01*
D02*
X414Y224D02*
X210Y176D01*
D02*
X762Y224D02*
X414Y224D01*
D02*
X234Y74D02*
X510Y32D01*
D02*
X210Y92D02*
X234Y74D01*
D02*
X210Y176D02*
X210Y92D01*
D02*
X1746Y608D02*
X1710Y752D01*
D02*
X1746Y44D02*
X1746Y608D01*
D02*
X1422Y20D02*
X1746Y44D01*
D02*
X666Y20D02*
X1422Y20D01*
D02*
X510Y32D02*
X666Y20D01*
D02*
X1626Y812D02*
X1182Y812D01*
D02*
X1710Y752D02*
X1626Y812D01*
D02*
X1182Y812D02*
X1171Y746D01*
D02*
X756Y348D02*
X762Y224D01*
D02*
X183Y115D02*
X210Y92D01*
G04 End of Copper1*
M02*